<svg width="14" height="14" viewBox="0 0 14 14" xmlns="http://www.w3.org/2000/svg">
<path d="M7.00008 12.8333C6.19314 12.8333 5.4348 12.6802 4.72508 12.3739C4.01536 12.0677 3.398 11.6521 2.873 11.1271C2.348 10.6021 1.93237 9.98471 1.62612 9.27499C1.31987 8.56527 1.16675 7.80693 1.16675 6.99999C1.16675 6.19305 1.31987 5.43471 1.62612 4.72499C1.93237 4.01527 2.348 3.39791 2.873 2.87291C3.398 2.34791 4.01536 1.93228 4.72508 1.62603C5.4348 1.31978 6.19314 1.16666 7.00008 1.16666C7.80703 1.16666 8.56536 1.31978 9.27508 1.62603C9.9848 1.93228 10.6022 2.34791 11.1272 2.87291C11.6522 3.39791 12.0678 4.01527 12.374 4.72499C12.6803 5.43471 12.8334 6.19305 12.8334 6.99999C12.8334 7.80693 12.6803 8.56527 12.374 9.27499C12.0678 9.98471 11.6522 10.6021 11.1272 11.1271C10.6022 11.6521 9.9848 12.0677 9.27508 12.3739C8.56536 12.6802 7.80703 12.8333 7.00008 12.8333Z"/>
</svg>
