<svg width="36" height="36" viewBox="0 0 36 36" fill="none" xmlns="http://www.w3.org/2000/svg">
<path d="M5.32494 31.5H8.99994V28.5C8.99994 28.075 9.14369 27.7188 9.43119 27.4313C9.71869 27.1438 10.0749 27 10.4999 27C10.9249 27 11.2812 27.1438 11.5687 27.4313C11.8562 27.7188 11.9999 28.075 11.9999 28.5V31.5H16.4999V28.5C16.4999 28.075 16.6437 27.7188 16.9312 27.4313C17.2187 27.1438 17.5749 27 17.9999 27C18.4249 27 18.7812 27.1438 19.0687 27.4313C19.3562 27.7188 19.4999 28.075 19.4999 28.5V31.5H23.9999V28.5C23.9999 28.075 24.1437 27.7188 24.4312 27.4313C24.7187 27.1438 25.0749 27 25.4999 27C25.9249 27 26.2812 27.1438 26.5687 27.4313C26.8562 27.7188 26.9999 28.075 26.9999 28.5V31.5H30.6749L29.1749 25.5H6.82494L5.32494 31.5ZM30.6749 34.5H5.32494C4.34994 34.5 3.56244 34.1125 2.96244 33.3375C2.36244 32.5625 2.18744 31.7 2.43744 30.75L4.49994 22.5V19.5C4.49994 18.675 4.79369 17.9688 5.38119 17.3813C5.96869 16.7938 6.67494 16.5 7.49994 16.5H13.4999V6C13.4999 4.75 13.9374 3.6875 14.8124 2.8125C15.6874 1.9375 16.7499 1.5 17.9999 1.5C19.2499 1.5 20.3124 1.9375 21.1874 2.8125C22.0624 3.6875 22.4999 4.75 22.4999 6V16.5H28.4999C29.3249 16.5 30.0312 16.7938 30.6187 17.3813C31.2062 17.9688 31.4999 18.675 31.4999 19.5V22.5L33.5624 30.75C33.8874 31.7 33.7437 32.5625 33.1312 33.3375C32.5187 34.1125 31.6999 34.5 30.6749 34.5Z" fill="white"/>
</svg>
