<svg width="24" height="24" viewBox="0 0 24 24" xmlns="http://www.w3.org/2000/svg">
<path d="M4.71825 20.2727H6.82465V18.5455C6.82465 18.3008 6.90704 18.0956 7.07183 17.9301C7.23661 17.7646 7.4408 17.6818 7.6844 17.6818C7.928 17.6818 8.13219 17.7646 8.29698 17.9301C8.46176 18.0956 8.54416 18.3008 8.54416 18.5455V20.2727H11.1234V18.5455C11.1234 18.3008 11.2058 18.0956 11.3706 17.9301C11.5354 17.7646 11.7396 17.6818 11.9832 17.6818C12.2268 17.6818 12.431 17.7646 12.5958 17.9301C12.7605 18.0956 12.8429 18.3008 12.8429 18.5455V20.2727H15.4222V18.5455C15.4222 18.3008 15.5046 18.0956 15.6694 17.9301C15.8342 17.7646 16.0384 17.6818 16.282 17.6818C16.5255 17.6818 16.7297 17.7646 16.8945 17.9301C17.0593 18.0956 17.1417 18.3008 17.1417 18.5455V20.2727H19.2481L18.3884 16.8182H5.578L4.71825 20.2727ZM19.2481 22H4.71825C4.1594 22 3.70803 21.7769 3.36413 21.3307C3.02023 20.8845 2.91992 20.3879 3.06322 19.8409L4.24538 15.0909V13.3636C4.24538 12.8886 4.41375 12.482 4.75049 12.1437C5.08722 11.8055 5.49203 11.6364 5.96489 11.6364H9.40391V5.59091C9.40391 4.87121 9.65467 4.25947 10.1562 3.75568C10.6577 3.25189 11.2667 3 11.9832 3C12.6996 3 13.3086 3.25189 13.8102 3.75568C14.3117 4.25947 14.5624 4.87121 14.5624 5.59091V11.6364H18.0015C18.4743 11.6364 18.8791 11.8055 19.2159 12.1437C19.5526 12.482 19.721 12.8886 19.721 13.3636V15.0909L20.9031 19.8409C21.0894 20.3879 21.007 20.8845 20.656 21.3307C20.3049 21.7769 19.8356 22 19.2481 22Z" />
</svg>
