<svg width="30" height="30" viewBox="0 0 30 30" xmlns="http://www.w3.org/2000/svg">
<path d="M13.75 22.5C13.3958 22.5 13.099 22.3802 12.8594 22.1406C12.6198 21.901 12.5 21.6042 12.5 21.25C12.5 20.8958 12.6198 20.599 12.8594 20.3594C13.099 20.1198 13.3958 20 13.75 20H16.25C16.6042 20 16.901 20.1198 17.1406 20.3594C17.3802 20.599 17.5 20.8958 17.5 21.25C17.5 21.6042 17.3802 21.901 17.1406 22.1406C16.901 22.3802 16.6042 22.5 16.25 22.5H13.75ZM8.75 16.25C8.39583 16.25 8.09896 16.1302 7.85938 15.8906C7.61979 15.651 7.5 15.3542 7.5 15C7.5 14.6458 7.61979 14.349 7.85938 14.1094C8.09896 13.8698 8.39583 13.75 8.75 13.75H21.25C21.6042 13.75 21.901 13.8698 22.1406 14.1094C22.3802 14.349 22.5 14.6458 22.5 15C22.5 15.3542 22.3802 15.651 22.1406 15.8906C21.901 16.1302 21.6042 16.25 21.25 16.25H8.75ZM5 10C4.64583 10 4.34896 9.88021 4.10938 9.64062C3.86979 9.40104 3.75 9.10417 3.75 8.75C3.75 8.39583 3.86979 8.09896 4.10938 7.85938C4.34896 7.61979 4.64583 7.5 5 7.5H25C25.3542 7.5 25.651 7.61979 25.8906 7.85938C26.1302 8.09896 26.25 8.39583 26.25 8.75C26.25 9.10417 26.1302 9.40104 25.8906 9.64062C25.651 9.88021 25.3542 10 25 10H5Z"/>
</svg>
