<svg width="23" height="23" viewBox="0 0 23 23" fill="none" xmlns="http://www.w3.org/2000/svg">
<path d="M11.1265 2.45454C11.3457 2.24969 11.6907 2.24969 11.91 2.45454L20.535 10.5045C20.7685 10.7202 20.7793 11.0867 20.5637 11.3167C20.3481 11.5467 19.9815 11.5611 19.7515 11.3455L18.9932 10.6375V18.4C18.9932 19.6686 17.9618 20.7 16.6932 20.7H6.34324C5.07464 20.7 4.04324 19.6686 4.04324 18.4V10.6375L3.28495 11.3455C3.05136 11.5611 2.68839 11.5503 2.47277 11.3167C2.25714 11.0831 2.26792 10.7202 2.50152 10.5045L11.1265 2.45454ZM11.5182 3.66204L5.19324 9.56657V18.4C5.19324 19.0361 5.70714 19.55 6.34324 19.55H8.64324V15.525C8.64324 14.2564 9.67464 13.225 10.9432 13.225H12.0932C13.3618 13.225 14.3932 14.2564 14.3932 15.525V19.55H16.6932C17.3293 19.55 17.8432 19.0361 17.8432 18.4V9.56657L11.5182 3.66204ZM9.79324 19.55H13.2432V15.525C13.2432 14.8889 12.7293 14.375 12.0932 14.375H10.9432C10.3071 14.375 9.79324 14.8889 9.79324 15.525V19.55Z" />
</svg>
