<svg width="28" height="28" viewBox="0 0 28 28" fill="none" xmlns="http://www.w3.org/2000/svg">
<path d="M7 25.75C6.35833 25.75 5.80903 25.5215 5.35208 25.0646C4.89514 24.6076 4.66667 24.0583 4.66667 23.4167V11.75C4.66667 11.1083 4.89514 10.559 5.35208 10.1021C5.80903 9.64514 6.35833 9.41667 7 9.41667H8.16667V7.08333C8.16667 5.46944 8.73542 4.09375 9.87292 2.95625C11.0104 1.81875 12.3861 1.25 14 1.25C15.6139 1.25 16.9896 1.81875 18.1271 2.95625C19.2646 4.09375 19.8333 5.46944 19.8333 7.08333V9.41667H21C21.6417 9.41667 22.191 9.64514 22.6479 10.1021C23.1049 10.559 23.3333 11.1083 23.3333 11.75V23.4167C23.3333 24.0583 23.1049 24.6076 22.6479 25.0646C22.191 25.5215 21.6417 25.75 21 25.75H7ZM14 19.9167C14.6417 19.9167 15.191 19.6882 15.6479 19.2313C16.1049 18.7743 16.3333 18.225 16.3333 17.5833C16.3333 16.9417 16.1049 16.3924 15.6479 15.9354C15.191 15.4785 14.6417 15.25 14 15.25C13.3583 15.25 12.809 15.4785 12.3521 15.9354C11.8951 16.3924 11.6667 16.9417 11.6667 17.5833C11.6667 18.225 11.8951 18.7743 12.3521 19.2313C12.809 19.6882 13.3583 19.9167 14 19.9167ZM10.5 9.41667H17.5V7.08333C17.5 6.11111 17.1597 5.28472 16.4792 4.60417C15.7986 3.92361 14.9722 3.58333 14 3.58333C13.0278 3.58333 12.2014 3.92361 11.5208 4.60417C10.8403 5.28472 10.5 6.11111 10.5 7.08333V9.41667Z" fill="#004A8D"/>
</svg>
