<svg width="24" height="24" viewBox="0 0 24 24" xmlns="http://www.w3.org/2000/svg">
<path d="M4.9375 19.15C4.67188 19.15 4.44922 19.059 4.26953 18.8769C4.08984 18.6948 4 18.4692 4 18.2C4 17.9308 4.08984 17.7052 4.26953 17.5231C4.44922 17.341 4.67188 17.25 4.9375 17.25H5.875V10.6C5.875 9.28583 6.26563 8.11812 7.04688 7.09687C7.82812 6.07562 8.84375 5.40667 10.0938 5.09V4.425C10.0938 4.02917 10.2305 3.69271 10.5039 3.41562C10.7773 3.13854 11.1094 3 11.5 3C11.8906 3 12.2227 3.13854 12.4961 3.41562C12.7695 3.69271 12.9062 4.02917 12.9062 4.425V5.09C14.1562 5.40667 15.1719 6.07562 15.9531 7.09687C16.7344 8.11812 17.125 9.28583 17.125 10.6V17.25H18.0625C18.3281 17.25 18.5508 17.341 18.7305 17.5231C18.9102 17.7052 19 17.9308 19 18.2C19 18.4692 18.9102 18.6948 18.7305 18.8769C18.5508 19.059 18.3281 19.15 18.0625 19.15H4.9375ZM11.5 22C10.9844 22 10.543 21.814 10.1758 21.4419C9.80859 21.0698 9.625 20.6225 9.625 20.1H13.375C13.375 20.6225 13.1914 21.0698 12.8242 21.4419C12.457 21.814 12.0156 22 11.5 22Z" />
</svg>
