<svg width="35" height="35" viewBox="0 0 35 35" fill="none" xmlns="http://www.w3.org/2000/svg">
<path d="M2.9165 26.2502V25.0835C2.9165 24.2571 3.1231 23.4976 3.5363 22.8048C3.94949 22.1121 4.52067 21.5835 5.24984 21.2189C6.63525 20.5141 8.07536 19.955 9.57015 19.5418C11.0649 19.1286 12.5901 18.922 14.1457 18.922C14.4859 18.922 14.7533 19.0739 14.9478 19.3778C15.1422 19.6816 15.1787 20.0036 15.0571 20.3439C14.9113 20.8543 14.8019 21.3647 14.729 21.8752C14.6561 22.3856 14.6196 22.9081 14.6196 23.4429C14.6196 24.1477 14.6925 24.8283 14.8384 25.4845C14.9842 26.1408 15.1908 26.7849 15.4582 27.4168C15.6526 27.83 15.6344 28.225 15.4035 28.6017C15.1726 28.9785 14.8505 29.1668 14.4373 29.1668H5.83317C5.03109 29.1668 4.34446 28.8812 3.77327 28.3101C3.20209 27.7389 2.9165 27.0522 2.9165 26.2502ZM24.7915 26.2502C25.5936 26.2502 26.2802 25.9646 26.8514 25.3934C27.4226 24.8222 27.7082 24.1356 27.7082 23.3335C27.7082 22.5314 27.4226 21.8448 26.8514 21.2736C26.2802 20.7024 25.5936 20.4168 24.7915 20.4168C23.9894 20.4168 23.3028 20.7024 22.7316 21.2736C22.1604 21.8448 21.8748 22.5314 21.8748 23.3335C21.8748 24.1356 22.1604 24.8222 22.7316 25.3934C23.3028 25.9646 23.9894 26.2502 24.7915 26.2502ZM14.5832 17.5002C12.979 17.5002 11.6057 16.929 10.4634 15.7866C9.32102 14.6443 8.74984 13.271 8.74984 11.6668C8.74984 10.0627 9.32102 8.6894 10.4634 7.54704C11.6057 6.40468 12.979 5.8335 14.5832 5.8335C16.1873 5.8335 17.5606 6.40468 18.703 7.54704C19.8453 8.6894 20.4165 10.0627 20.4165 11.6668C20.4165 13.271 19.8453 14.6443 18.703 15.7866C17.5606 16.929 16.1873 17.5002 14.5832 17.5002ZM23.1144 29.4585L22.8957 28.4377C22.604 28.3161 22.3306 28.1885 22.0754 28.0548C21.8201 27.9212 21.5589 27.7571 21.2915 27.5627L20.2342 27.8908C19.9182 27.988 19.6083 27.9759 19.3045 27.8543C19.0007 27.7328 18.7637 27.5384 18.5936 27.271L18.3019 26.7606C18.1318 26.4689 18.071 26.1529 18.1196 25.8127C18.1682 25.4724 18.3262 25.1929 18.5936 24.9741L19.3957 24.2814C19.3471 23.9411 19.3228 23.6252 19.3228 23.3335C19.3228 23.0418 19.3471 22.7259 19.3957 22.3856L18.5936 21.6929C18.3262 21.4741 18.1682 21.2007 18.1196 20.8726C18.071 20.5444 18.1318 20.2345 18.3019 19.9429L18.63 19.396C18.8002 19.1286 19.0311 18.9342 19.3228 18.8127C19.6144 18.6911 19.9182 18.679 20.2342 18.7762L21.2915 19.1043C21.5589 18.9099 21.8201 18.7458 22.0754 18.6121C22.3306 18.4785 22.604 18.3509 22.8957 18.2293L23.1144 17.172C23.1873 16.8318 23.3514 16.5583 23.6066 16.3517C23.8618 16.1451 24.1596 16.0418 24.4998 16.0418H25.0832C25.4234 16.0418 25.7212 16.1512 25.9764 16.37C26.2316 16.5887 26.3957 16.8682 26.4686 17.2085L26.6873 18.2293C26.979 18.3509 27.2524 18.4845 27.5076 18.6304C27.7629 18.7762 28.0241 18.9585 28.2915 19.1772L29.2759 18.8491C29.6162 18.7276 29.9443 18.7276 30.2603 18.8491C30.5762 18.9706 30.8193 19.1772 30.9894 19.4689L31.2811 19.9793C31.4512 20.271 31.512 20.587 31.4634 20.9272C31.4148 21.2675 31.2568 21.547 30.9894 21.7658L30.1873 22.4585C30.2359 22.7502 30.2603 23.054 30.2603 23.37C30.2603 23.6859 30.2359 23.9897 30.1873 24.2814L30.9894 24.9741C31.2568 25.1929 31.4148 25.4663 31.4634 25.7944C31.512 26.1226 31.4512 26.4325 31.2811 26.7241L30.953 27.271C30.7828 27.5384 30.5519 27.7328 30.2603 27.8543C29.9686 27.9759 29.6648 27.988 29.3488 27.8908L28.2915 27.5627C28.0241 27.7571 27.7629 27.9212 27.5076 28.0548C27.2524 28.1885 26.979 28.3161 26.6873 28.4377L26.4686 29.495C26.3957 29.8352 26.2316 30.1087 25.9764 30.3153C25.7212 30.5219 25.4234 30.6252 25.0832 30.6252H24.4998C24.1596 30.6252 23.8618 30.5158 23.6066 30.297C23.3514 30.0783 23.1873 29.7988 23.1144 29.4585Z" fill="#004A8D"/>
</svg>
